<?xml version="1.0" encoding="iso-8859-1"?>
<!-- Uploaded to: SVG Repo, www.svgrepo.com, Generator: SVG Repo Mixer Tools -->
<svg version="1.1" id="Layer_1" xmlns="http://www.w3.org/2000/svg" xmlns:xlink="http://www.w3.org/1999/xlink" 
	 viewBox="0 0 451.296 451.296" xml:space="preserve">
<circle style="fill:#334D5C;" cx="225.648" cy="225.638" r="225.638"/>
<path style="opacity:0.1;enable-background:new    ;" d="M220.242,99.142c-1.833-1.833-4.278-2.773-6.723-2.773
	s-4.889,0.94-6.77,2.773c-3.761,3.761-3.761,9.779,0,13.54l-0.423-0.424l-62.338,62.338l0.376,0.424
	c-1.833-1.834-4.278-2.774-6.723-2.774c-2.445,0-4.889,0.94-6.77,2.774c-3.761,3.761-3.761,9.778,0,13.539l111.654,111.654H115.781
	c-10.719,0-19.416,8.65-19.416,19.369v35.353l93.51,93.51c11.655,1.857,23.596,2.852,35.773,2.852
	c93.743,0,174.12-57.171,208.208-138.54L269.369,148.27L220.242,99.142z"/>
<path style="fill:#DC8744;" d="M245.015,304.891H115.764c-10.714,0-19.399,8.685-19.399,19.399v30.631h168.049V324.29
	C264.414,313.576,255.729,304.891,245.015,304.891z"/>
<path style="fill:#F6C358;" d="M245.015,300.19H115.764c-10.714,0-19.399,8.685-19.399,19.399v30.631h168.049v-30.631
	C264.414,308.875,255.729,300.19,245.015,300.19z"/>
<rect x="164.819" y="124.33" transform="matrix(-0.7071 -0.7071 0.7071 -0.7071 222.5566 429.0256)" style="fill:#EBF0F3;" width="70.625" height="88.182"/>
<g>
	<path style="fill:#D5D6DB;" d="M179.972,237.658l-49.111-49.111c-3.733-3.733-3.733-9.786,0-13.519l0,0
		c3.733-3.733,9.786-3.733,13.519,0l49.111,49.111c3.734,3.733,3.734,9.786,0,13.519l0,0
		C189.758,241.391,183.705,241.391,179.972,237.658z"/>
	<path style="fill:#D5D6DB;" d="M255.845,161.785l-49.111-49.111c-3.733-3.733-3.733-9.786,0-13.519l0,0
		c3.733-3.733,9.786-3.733,13.519,0l49.111,49.111c3.733,3.733,3.733,9.786,0,13.519l0,0
		C265.631,165.518,259.579,165.518,255.845,161.785z"/>
	<path style="fill:#D5D6DB;" d="M351.446,302.909L233.497,184.961l-16.83,16.83l117.948,117.948c4.648,4.648,12.183,4.648,16.83,0
		l0,0C356.093,315.092,356.093,307.557,351.446,302.909z"/>
</g>
</svg>